<svg data-name="Layer 2" xmlns="http://www.w3.org/2000/svg" viewBox="0 0 704.25 154.33"><path d="M158.9 99.81h193V155h-193zm184.36 39.62a4 4 0 0 1-1 .17c-1.09 0-1.66-.49-1.66-1.88v-10.49c0-5.51-4.35-8.19-9.59-8.19a23.26 23.26 0 0 0-10.34 2.18l-.93 5.55 5.51.59.79-2.71a7.56 7.56 0 0 1 3.69-.7c3.91 0 4 2.94 4 5.45v.75a32.63 32.63 0 0 0-4-.22c-5.51 0-11.24 1.4-11.24 7.33 0 5 4 6.91 7.44 6.91a8.69 8.69 0 0 0 7.76-4.81 4.93 4.93 0 0 0 5.31 4.81 9.33 9.33 0 0 0 4.36-1.09zm-14.84-.16a2.53 2.53 0 0 1-2.83-2.79c0-2.62 2.18-3.27 4.61-3.27a25.15 25.15 0 0 1 3.47.32c-.16 3.98-2.74 5.74-5.25 5.74zm-16.07-32.44l-10.44 36.83h6.8l10.44-36.84zm-14 0l-10.44 36.83h6.8l10.43-36.84zm-22.2 21.4h7.23v-8.71h-7.23zm0 15.48h7.23V135h-7.23zm-11.65-5.29h-7.82l13.39-15.25-.54-3.64h-21.2l-.86 8.47 5 .53 1.09-3.75h7.55L247.79 140l.69 3.64h21.08l1.51-8.47-5.45-.53zM231 119c-8.72 0-12.95 5.84-12.95 12.9 0 7.72 5.13 12.26 12.58 12.26 7.71 0 13.27-4.87 13.27-12.58 0-6.75-4.25-12.59-12.91-12.59zm-.18 19.83c-3.75 0-5.68-3.21-5.68-7.38 0-4.56 2.18-7.18 5.73-7.18 3.27 0 5.9 2.17 5.9 7.07 0 4.63-2.36 7.49-6 7.49zm-19-11.48c0-5.73-4-8.36-8.31-8.36a8.09 8.09 0 0 0-7.86 5.2c-1.18-3.54-4.39-5.2-7.87-5.2a8 8 0 0 0-7.33 4.13v-3.64h-10.1v5.25h3.21v13.66h-3.22v5.25h14.73v-5.25h-4.61V130c0-3.38 1.39-5.74 4.66-5.74 2.73 0 4.12 1.61 4.12 5.79v13.6h10.12v-5.25h-3.21V130c0-3.39 1.39-5.74 4.66-5.74 2.72 0 4.12 1.61 4.12 5.79v13.57h10.12v-5.25h-3.22zm253.82-72.1h-20.26c.74-6.24 3.74-11.46 10.55-11.46 7.23 0 10.3 6 9.71 11.46zM704 .52v93.85H158.9V.52zM229.62 22.7h-12.4L196.77 65h-.33l-21-42.27h-12.39V28h7.06v43.32h-6.81v5.32h19.1v-5.32h-6.49V36.73h.33l18.52 37.21H198l18.1-37h.34v34.38h-6.32v5.32h19.14v-5.32h-6.73V28h7.05zm32.19 54c17 0 27.33-11.21 27.33-27.13 0-15.61-10-26.91-27.57-26.91H237.4v5.23h6.81v43.56h-6.82v5.23zm87.19-54h-20.7V28h8.14v36.3h-.33l-30.78-41.6H293.7V28h7.16v43.32h-6.24v5.32h20.57v-5.32h-8.55V34.16h.36l31.32 42.53h3.9V28h6.74zm86 17h-16.62v4.73h5.9l-6 23.35h-.42l-11.53-28.05h-3.9l-11 28.09H391l-6.89-23.35h6.22v-4.74H372.9v4.73h4.91l10.47 32.22h4.35l11.06-28.24h.42l11.26 28.24h4.49l10.05-32.23H435zm21.6 37.78c9.14 0 14.54-5.1 15.56-11.49l-4.91-1.09c-1.16 4.57-4.39 7.56-10.21 7.56-7.35 0-11.37-4.73-11.71-12.95h26a20.6 20.6 0 0 0 .5-4.36c-.08-8.72-5.57-16.2-15.7-16.2-10.46 0-16.94 8.31-16.94 19.78 0 12 7 18.76 17.43 18.76zm43.19 0c11.8 0 16.54-10.47 16.54-20.27 0-11.73-6.65-18.27-15.86-18.27-7.06 0-11 3.82-13.21 8.39v-27.8h-11.38v4.74h5.45V65.9a73.88 73.88 0 0 1-1.09 10.8h5.82c.09-.41.75-5.74.75-6.15 2.41 4.48 7.22 7 12.95 7zM584.17 72h-6.39V19.53H563v4.74h9V45.7c-2.43-4.31-6.95-6.7-12.4-6.7-12.05 0-16.7 10.31-16.7 20.19 0 11.55 6.31 18.36 15.86 18.36 6.73 0 10.8-4 13.21-8.31v7.48h12.19zm22.44 5.56c11.37 0 18.52-8.13 18.49-19.34 0-10.47-6.23-19.27-18.19-19.27s-18.26 8.81-18.26 19.6c0 11.14 6.73 19 17.93 19zm41.69 0c10.21 0 14.61-6.81 15.67-13.24l-5-1.1c-1.07 6.07-4.23 9.4-10 9.4-7.31 0-11.3-5.27-11.3-14.16 0-8 3.16-14.46 11-14.46a14.22 14.22 0 0 1 7.99 2l1.34 6.27 4.81-.58-1.41-8.88C657.68 40 653.7 39 648.79 39c-11.46 0-17.27 9.55-17.27 19.77 0 11.87 6.55 18.77 16.77 18.77zm36 0c8.89 0 15.7-4.31 15.61-11.58 0-14.7-22.87-7.07-22.87-16.69 0-3.8 3.32-5.45 8-5.45a15.61 15.61 0 0 1 7.63 1.83l.86 6 4.81-.58-.91-8.63A26.11 26.11 0 0 0 684.49 39c-6.72 0-13.71 2.9-13.71 10.72 0 14.36 23.18 6.64 23.18 16.77 0 4.24-4.82 6.23-10 6.23a18.6 18.6 0 0 1-8.23-1.83L676 66l-4.65-.5-1.16 8.39c3.14 2.07 8.81 3.65 14 3.65zM510.18 57.83c0 7.64-3.41 14.7-11.55 14.7a11.13 11.13 0 0 1-11.38-11.13v-5.57C487.41 50.36 491.9 44 499 44c6.27 0 11.21 4.65 11.22 13.87zM572 54.42v5.9c-.24 5.57-5.05 12.21-11.7 12.21-6.4 0-11.21-4.74-11.21-13.79 0-7.81 3.65-14.78 11.87-14.78A10.81 10.81 0 0 1 572 54.42zm47 3.65c0 8.31-4.32 14.45-12.21 14.45s-12-6.31-12-14.37c0-8.21 4.31-14.28 12-14.28S619 49.6 619 58.06zm-336.29-8.36c0 13.4-7.48 21.79-21.18 21.79h-11.21V27.92h11.17c13.7 0 21.18 8.73 21.22 21.79zM-1 .52h154.48V155H-1zm135 70.93c-.12-2.33-.39-4.66-.55-7a5.6 5.6 0 0 0-1.27-3.15 8 8 0 0 0-3.31-2.39c-2.6-1-5.22-2.14-7.84-3.14a67.87 67.87 0 0 1-10.76-4.74 8.44 8.44 0 0 1-4.18-6.34 9.54 9.54 0 0 0-4.74-7.19 13 13 0 0 0-9.53-1.12 14.67 14.67 0 0 1-7.18-.11L81 35.19l-1-.29-2.81-.83c-5.06-1.52-7.18-2.3-15.38-.91A47.38 47.38 0 0 0 39 45.72L18.5 67.5h18.43l-11.29 12h19.41l-11.28 12h15.6l-5 13.08C63.49 124 83.84 128 83.84 128c0-5.39 1.23-26.54 2.67-30.09a16.47 16.47 0 0 1 2.45-5 13.52 13.52 0 0 1 10.93-5 34.4 34.4 0 0 1 12.29 2.26 8.48 8.48 0 0 0 7.34-.39c1.63-1 3.25-2 4.83-3a2.64 2.64 0 0 1 1.79-.58 4 4 0 0 0 4.09-2.37c.51-1.06 1.13-2.06 1.69-3.12a17.62 17.62 0 0 0 2-9.28z" fill="#fff"/></svg>