<svg id="Layer_1" data-name="Layer 1" xmlns="http://www.w3.org/2000/svg" viewBox="0 0 704.25 154.33"><title>mdn-logo-black</title><path d="M159.74,99.2H352.56v55.13H159.73Zm184.17,39.58a3.87,3.87,0,0,1-1,.16c-1.09,0-1.66-.48-1.66-1.87V126.59c0-5.5-4.35-8.18-9.58-8.18a23.2,23.2,0,0,0-10.33,2.17l-.93,5.55,5.5.59.79-2.71a7.47,7.47,0,0,1,3.69-.7c3.91,0,4,2.94,4,5.44v.75a34.78,34.78,0,0,0-4-.22c-5.5,0-11.23,1.4-11.23,7.33,0,5,4,6.9,7.44,6.9a8.7,8.7,0,0,0,7.75-4.81,4.93,4.93,0,0,0,5.31,4.81,9.32,9.32,0,0,0,4.35-1.09Zm-14.81-.16a2.54,2.54,0,0,1-2.84-2.79c0-2.62,2.18-3.27,4.61-3.27a25.15,25.15,0,0,1,3.47.32c-.16,4-2.74,5.74-5.24,5.74ZM313,106.2,302.61,143h6.79l10.43-36.78Zm-14,0L288.6,143h6.79l10.43-36.79Zm-22.17,21.38h7.21v-8.7h-7.21Zm0,15.46h7.21v-8.71h-7.21Zm-11.64-5.28H257.4l13.38-15.24-.54-3.64H249.07l-.87,8.47,5,.52,1.09-3.74h7.54l-13.27,15.24.69,3.63h21.06l1.51-8.46-5.44-.53ZM231.79,118.4c-8.7,0-12.93,5.83-12.93,12.88,0,7.71,5.13,12.24,12.56,12.24,7.71,0,13.27-4.86,13.27-12.56,0-6.74-4.25-12.57-12.9-12.57Zm-.17,19.8c-3.75,0-5.67-3.21-5.67-7.38,0-4.55,2.17-7.17,5.72-7.17,3.27,0,5.89,2.18,5.89,7.07,0,4.62-2.35,7.48-5.94,7.48Zm-19-11.47c0-5.73-3.93-8.35-8.29-8.35a8.08,8.08,0,0,0-7.85,5.19c-1.18-3.54-4.39-5.19-7.86-5.19a8,8,0,0,0-7.33,4.11v-3.63h-10.1v5.24h3.2v13.65h-3.21V143h14.72v-5.24h-4.61v-8.38c0-3.37,1.39-5.73,4.66-5.73,2.72,0,4.11,1.62,4.11,5.78V143h10.11v-5.25H197v-8.4c0-3.38,1.4-5.73,4.66-5.73,2.72,0,4.11,1.61,4.11,5.78V143h10.11v-5.24h-3.21ZM466.18,54.68H445.93c.74-6.23,3.74-11.45,10.54-11.45,7.23,0,10.3,6,9.71,11.45ZM704.25,0V93.77H159.74V0ZM230.39,22.16H218L197.58,64.4h-.34l-21-42.25H163.89v5.31h7.05V70.74h-6.8v5.31h19.07V70.74h-6.47V36.17h.32l18.5,37.18h3.27l18.09-36.92h.34v34.3h-6.32V76h19.12V70.73h-6.72V27.47h7Zm32.16,53.93c17,0,27.3-11.2,27.3-27.09,0-15.6-10-26.88-27.55-26.88H238.16v5.22H245V70.87h-6.8v5.22ZM349.6,22.16H328.92v5.31h8.13V63.73h-.32L306,22.16H294.41v5.31h7.14V70.74h-6.22v5.31h20.55V70.74h-8.55V33.61h.32L339,76.1h3.89V27.47h6.73Zm86,17H419V43.9h5.89l-6,23.32h-.42l-11.54-28H403L392,67.23h-.4l-6.89-23.32h6.22V39.18H373.53V43.9h4.9l10.46,32.19h4.35l11-28.21h.42L416,76.09h4.48L430.48,43.9h5.06Zm21.57,37.74c9.13,0,14.53-5.09,15.54-11.48l-4.9-1.09c-1.16,4.57-4.39,7.55-10.2,7.55-7.35,0-11.36-4.72-11.7-12.93H471.8a20.67,20.67,0,0,0,.5-4.36c-.07-8.72-5.56-16.19-15.68-16.19-10.44,0-16.93,8.3-16.93,19.76,0,11.95,7,18.75,17.42,18.75Zm43.15,0c11.79,0,16.52-10.46,16.52-20.25,0-11.73-6.64-18.25-15.84-18.25-7,0-10.95,3.82-13.2,8.38V19H476.4v4.73h5.45V65.32a73.47,73.47,0,0,1-1.09,10.78h5.81c.09-.41.75-5.72.75-6.13,2.41,4.47,7.22,7,12.94,7Zm84.31-5.56H578.2V19H563.4v4.73h9V45.14c-2.41-4.32-6.92-6.72-12.36-6.72-12,0-16.68,10.29-16.68,20.16,0,11.54,6.3,18.34,15.84,18.34,6.72,0,10.79-3.94,13.2-8.29V76.1h12.18ZM607,76.92c11.36,0,18.5-8.13,18.48-19.33,0-10.46-6.23-19.25-18.18-19.25s-18.24,8.8-18.24,19.59c0,11.13,6.72,19,17.91,19Zm41.65,0c10.2,0,14.6-6.8,15.66-13.23l-5-1.1c-1.07,6.07-4.23,9.39-10,9.39-7.31,0-11.29-5.27-11.29-14.15,0-8,3.16-14.44,11-14.44A14.13,14.13,0,0,1,657,45.47l1.36,6.23,4.81-.58-1.42-8.88c-3.73-2.81-7.71-3.82-12.61-3.82-11.44,0-17.26,9.55-17.26,19.76,0,11.86,6.56,18.75,16.76,18.75Zm35.93,0c8.88,0,15.69-4.31,15.6-11.57,0-14.69-22.85-7.06-22.85-16.68,0-3.79,3.32-5.44,8-5.44a15.64,15.64,0,0,1,7.62,1.82l.86,6,4.81-.58-.91-8.62a26.17,26.17,0,0,0-12.86-3.41c-6.72,0-13.7,2.9-13.7,10.71,0,14.35,23.15,6.64,23.15,16.76,0,4.23-4.81,6.22-10,6.22a18.73,18.73,0,0,1-8.22-1.83l.26-4.89-4.65-.51-1.17,8.38c3.15,2.07,8.81,3.65,14,3.65ZM510.66,57.26c0,7.63-3.4,14.69-11.53,14.69a11.12,11.12,0,0,1-11.37-11.13V55.26c.16-5.47,4.64-11.86,11.7-11.86,6.26,0,11.2,4.65,11.2,13.85Zm61.73-3.41v5.9c-.25,5.56-5,12.19-11.7,12.19-6.38,0-11.19-4.73-11.19-13.77,0-7.81,3.64-14.77,11.86-14.77a10.81,10.81,0,0,1,11,10.45Zm47,3.64c0,8.31-4.31,14.45-12.19,14.45s-12-6.31-12-14.36,4.31-14.27,12-14.27S619.36,49,619.36,57.49ZM283.42,49.15c0,13.39-7.47,21.76-21.16,21.76H251.07V27.38h11.16c13.69,0,21.15,8.72,21.19,21.77ZM0,0H154.33V154.33H0ZM134.82,70.86c-.11-2.32-.38-4.66-.55-7A5.53,5.53,0,0,0,133,60.74a7.84,7.84,0,0,0-3.3-2.38c-2.6-1-5.22-2.14-7.83-3.14a68.68,68.68,0,0,1-10.76-4.74,8.43,8.43,0,0,1-4.17-6.34A9.51,9.51,0,0,0,102.21,37a13.08,13.08,0,0,0-9.52-1.13,14.43,14.43,0,0,1-7.18-.11l-3.58-1.09-1-.29-2.81-.84C73.1,32,71,31.22,62.79,32.62A47.25,47.25,0,0,0,40,45.16L19.48,66.92h18.4L26.61,78.85H46L34.73,90.79H50.32l-5,13.07c19.09,19.53,39.43,23.48,39.43,23.48,0-5.39,1.22-26.52,2.66-30.06a16.64,16.64,0,0,1,2.45-5,13.57,13.57,0,0,1,10.92-5,34.55,34.55,0,0,1,12.27,2.26,8.42,8.42,0,0,0,7.33-.39c1.63-1,3.24-2,4.82-3a2.64,2.64,0,0,1,1.79-.58,4,4,0,0,0,4.09-2.37c.51-1.06,1.13-2.06,1.69-3.12a17.56,17.56,0,0,0,2-9.27Z"/></svg>